HIERARCHY
ROOT Hips
{
	OFFSET 0.000000 0.000000 0.000000
	CHANNELS 6 Xposition Yposition Zposition Zrotation Yrotation Xrotation 
	JOINT LowerBack
	{
		OFFSET 0.000000 0.000000 0.000000
		CHANNELS 3 Zrotation Yrotation Xrotation
		JOINT Spine
		{
			OFFSET 0.028270 2.035590 -0.193380
			CHANNELS 3 Zrotation Yrotation Xrotation
			JOINT Spine1
			{
				OFFSET 0.056720 2.048850 -0.042750
				CHANNELS 3 Zrotation Yrotation Xrotation
				JOINT Neck
				{
					OFFSET 0.000000 0.000000 0.000000
					CHANNELS 3 Zrotation Yrotation Xrotation
					JOINT Neck1
					{
						OFFSET -0.054170 1.746240 0.172020
						CHANNELS 3 Zrotation Yrotation Xrotation
						JOINT Head
						{
							OFFSET 0.104070 1.761360 -0.123970
							CHANNELS 3 Zrotation Yrotation Xrotation
							End Site
							{
								OFFSET 0.000000 0.000000 0.000000
							}
						}
					}
				}
				JOINT LeftShoulder
				{
					OFFSET 0.000000 0.000000 0.000000
					CHANNELS 3 Zrotation Yrotation Xrotation
					JOINT LeftArm
					{
						OFFSET 3.362410 1.200890 -0.311210
						CHANNELS 3 Zrotation Yrotation Xrotation
						JOINT LeftForeArm
						{
							OFFSET 4.983000 -0.000000 -0.000000
							CHANNELS 3 Zrotation Yrotation Xrotation
							JOINT LeftHand
							{
								OFFSET 3.483560 -0.000000 -0.000000
								CHANNELS 3 Zrotation Yrotation Xrotation
								JOINT LeftFingerBase
								{
									OFFSET 0.000000 0.000000 0.000000
									CHANNELS 3 Zrotation Yrotation Xrotation
									JOINT LeftHandIndex1
									{
										OFFSET 0.715260 -0.000000 -0.000000
										CHANNELS 3 Zrotation Yrotation Xrotation
										End Site
										{
											OFFSET 0.000000 0.000000 0.000000
										}
									}
								}
								JOINT LThumb
								{
									OFFSET 0.000000 0.000000 0.000000
									CHANNELS 3 Zrotation Yrotation Xrotation
									End Site
									{
										OFFSET 0.000000 0.000000 0.000000
									}
								}
							}
						}
					}
				}
				JOINT RightShoulder
				{
					OFFSET 0.000000 0.000000 0.000000
					CHANNELS 3 Zrotation Yrotation Xrotation
					JOINT RightArm
					{
						OFFSET -3.136600 1.374050 -0.404650
						CHANNELS 3 Zrotation Yrotation Xrotation
						JOINT RightForeArm
						{
							OFFSET -5.241900 -0.000000 -0.000000
							CHANNELS 3 Zrotation Yrotation Xrotation
							JOINT RightHand
							{
								OFFSET -3.444170 -0.000000 -0.000000
								CHANNELS 3 Zrotation Yrotation Xrotation
								JOINT RightFingerBase
								{
									OFFSET 0.000000 0.000000 0.000000
									CHANNELS 3 Zrotation Yrotation Xrotation
									JOINT RightHandIndex1
									{
										OFFSET -0.622530 -0.000000 -0.000000
										CHANNELS 3 Zrotation Yrotation Xrotation
										End Site
										{
											OFFSET 0.000000 0.000000 0.000000
										}
									}
								}
								JOINT RThumb
								{
									OFFSET 0.000000 0.000000 0.000000
									CHANNELS 3 Zrotation Yrotation Xrotation
									End Site
									{
										OFFSET 0.000000 0.000000 0.000000
									}
								}
							}
						}
					}
				}
			}
		}
	}
}
}
MOTION
Frames: 17
Frame Time: 0.008333
8.748151 18.680253 1.696721 -173.206540 -81.084293 -171.875197 6.466234 -4.802402 -7.824605 1.725795 -5.578321 -3.809564 -1.632265 -5.854412 3.420599 5.480704 -21.098181 -9.847900 0.259045 0.060453 -0.475590 0.000000 0.000000 0.000000 28.913387 15.006743 -3.244131 4.932629 -13.501640 -66.084684 177.973794 -85.040430 179.571805 31.439066 -5.392741 -1.798760 -0.442034 0.895337 -0.000000 0.000000 0.000000 0.000000 0.000000 0.000000 0.000000 0.518871 -20.756286 1.774708 57.777166 -32.914768 -27.973156 3.254344 28.756138 -0.023283 -12.373213 0.065863 -0.019495 0.285450 -0.113936 -0.000000 0.000000 0.000000 0.000000 0.000000 0.000000 0.000000 
8.514625 18.622830 1.643526 -176.116704 -80.295882 -169.446154 6.190381 -4.705121 -7.463317 1.643946 -5.428032 -3.716326 -1.640831 -5.705885 3.497566 5.241716 -21.377327 -9.889397 0.239709 0.059841 -0.489080 0.000000 0.000000 0.000000 28.973964 15.388398 -3.126905 5.698359 -12.718246 -65.904497 177.868800 -83.717875 179.577745 31.257594 -5.812709 -1.907598 -0.441862 0.895259 -0.000000 0.000000 0.000000 0.000000 0.000000 0.000000 0.000000 0.632997 -20.991083 1.718393 57.648655 -33.894285 -28.864533 3.176436 29.988871 -0.026768 -12.341894 -0.503245 0.043095 0.289198 -0.117030 -0.000000 0.000000 0.000000 0.000000 0.000000 0.000000 0.000000 
8.282464 18.555830 1.590247 -178.412182 -79.535861 -167.603231 5.976531 -4.618278 -7.108842 1.569199 -5.297533 -3.620308 -1.684762 -5.576893 3.584174 5.044738 -21.613967 -9.965894 0.199161 0.058109 -0.512043 0.000000 0.000000 0.000000 28.906870 15.807464 -2.978558 6.488398 -11.914669 -65.647391 177.766301 -82.290831 179.585472 30.914060 -6.193797 -1.993007 -0.440205 0.895016 -0.000000 0.000000 0.000000 0.000000 0.000000 0.000000 0.000000 0.854955 -21.204395 1.646594 57.548455 -34.653737 -29.807371 3.098130 31.057238 -0.029858 -12.444153 -0.893796 0.086588 0.292852 -0.120955 -0.000000 0.000000 0.000000 0.000000 0.000000 0.000000 0.000000 
8.051601 18.479172 1.537033 179.739747 -78.812482 -166.180978 5.816560 -4.544893 -6.761103 1.502379 -5.188358 -3.521309 -1.753540 -5.469502 3.682919 4.887433 -21.816259 -10.079586 0.146287 0.056069 -0.545372 0.000000 0.000000 0.000000 28.745195 16.296770 -2.809477 7.233701 -11.164715 -65.317418 177.667707 -80.791027 179.594973 30.379414 -6.506684 -2.043592 -0.436438 0.894711 -0.000000 0.000000 0.000000 0.000000 0.000000 0.000000 0.000000 1.147952 -21.404497 1.563453 57.485428 -35.160457 -30.756622 3.021609 31.924327 -0.032552 -12.683813 -1.109866 0.112282 0.296472 -0.125587 -0.000000 0.000000 0.000000 0.000000 0.000000 0.000000 0.000000 
7.821445 18.392219 1.483544 178.293421 -78.126377 -165.104404 5.721637 -4.483465 -6.457032 1.448603 -5.101256 -3.428691 -1.839353 -5.384434 3.788602 4.748282 -21.968337 -10.219321 0.088822 0.054126 -0.585889 0.000000 0.000000 0.000000 28.469548 16.763625 -2.605028 7.971501 -10.330602 -64.895227 177.578161 -79.233295 179.606071 29.677864 -6.709477 -2.049154 -0.431593 0.893591 -0.000000 0.000000 0.000000 0.000000 0.000000 0.000000 0.000000 1.445791 -21.567965 1.478997 57.519551 -35.427466 -31.802423 2.948166 32.600363 -0.034911 -12.998074 -1.187819 0.123478 0.299655 -0.130977 0.000000 0.000000 0.000000 0.000000 0.000000 0.000000 0.000000 
7.592202 18.294847 1.430017 177.075574 -77.496425 -164.227009 5.663256 -4.442158 -6.173180 1.404077 -5.039804 -3.337754 -1.931975 -5.325626 3.901871 4.630846 -22.087681 -10.386663 0.034224 0.052975 -0.634271 0.000000 0.000000 0.000000 28.129497 17.259185 -2.384831 8.614918 -9.539757 -64.381511 177.497394 -77.658091 179.618530 28.805444 -6.801566 -2.010600 -0.424785 0.892052 -0.000000 0.000000 0.000000 0.000000 0.000000 0.000000 0.000000 1.729971 -21.713169 1.394745 57.633937 -35.438602 -32.802571 2.879347 33.072948 -0.036890 -13.397068 -1.137894 0.120576 0.302461 -0.136560 0.000000 0.000000 0.000000 0.000000 0.000000 0.000000 0.000000 
7.363568 18.186557 1.376276 176.051374 -76.929330 -163.505899 5.640020 -4.420956 -5.925733 1.370117 -5.004209 -3.253490 -2.026511 -5.293062 4.016999 4.523974 -22.170594 -10.572209 -0.013228 0.052786 -0.687773 0.000000 0.000000 0.000000 27.721377 17.725960 -2.145795 9.183353 -8.734801 -63.760952 177.428799 -76.090292 179.632050 27.799890 -6.783912 -1.933234 -0.416508 0.889913 -0.000000 0.000000 0.000000 0.000000 0.000000 0.000000 0.000000 1.966004 -21.829368 1.316839 57.854872 -35.219738 -33.763432 2.816169 33.371087 -0.038488 -13.829444 -0.993057 0.105775 0.304548 -0.142097 -0.000000 0.000000 0.000000 0.000000 0.000000 0.000000 0.000000 
7.135475 18.066964 1.322188 175.172202 -76.432379 -162.893137 5.643141 -4.419496 -5.720186 1.345364 -4.993316 -3.178388 -2.121254 -5.285268 4.128602 4.425105 -22.219753 -10.768668 -0.052103 0.053533 -0.744212 0.000000 0.000000 0.000000 27.250687 18.129084 -1.890916 9.688680 -7.901293 -63.023875 177.374055 -74.554006 179.646283 26.703028 -6.673680 -1.827359 -0.407096 0.887222 -0.000000 0.000000 0.000000 0.000000 0.000000 0.000000 0.000000 2.143396 -21.912828 1.248751 58.188213 -34.798771 -34.654503 2.759900 33.522971 -0.039669 -14.260209 -0.777210 0.080877 0.305715 -0.147281 -0.000000 0.000000 0.000000 0.000000 0.000000 0.000000 0.000000 
6.908089 17.935795 1.267578 174.391648 -76.011113 -162.344711 5.660711 -4.434852 -5.561182 1.326743 -5.003380 -3.114580 -2.217800 -5.298032 4.231209 4.337779 -22.239569 -10.969664 -0.084147 0.054937 -0.801603 0.000000 0.000000 0.000000 26.725986 18.446848 -1.627514 10.142797 -7.057719 -62.165552 177.334244 -73.077949 179.660925 25.548559 -6.508279 -1.707376 -0.396556 0.884400 -0.000000 0.000000 0.000000 0.000000 0.000000 0.000000 0.000000 2.272044 -21.961044 1.192531 58.631026 -34.209785 -35.453650 2.712058 33.557595 -0.040388 -14.658113 -0.510508 0.047481 0.305817 -0.151857 -0.000000 0.000000 0.000000 0.000000 0.000000 0.000000 0.000000 
6.681536 17.792994 1.212191 173.670881 -75.665447 -161.818277 5.679288 -4.462150 -5.453023 1.309705 -5.028869 -3.063790 -2.321799 -5.325261 4.319942 4.271472 -22.234008 -11.170382 -0.114075 0.056485 -0.858351 0.000000 0.000000 0.000000 26.150529 18.666671 -1.363557 10.572524 -6.229140 -61.187043 177.309358 -71.687352 179.675596 24.379287 -6.323486 -1.586091 -0.385215 0.881788 -0.000000 0.000000 0.000000 0.000000 0.000000 0.000000 0.000000 2.380559 -21.971198 1.148773 59.169597 -33.486805 -36.144382 2.674332 33.496621 -0.040613 -15.004884 -0.206755 0.007287 0.304835 -0.155618 -0.000000 0.000000 0.000000 0.000000 0.000000 0.000000 0.000000 
6.456082 17.638855 1.155804 172.975348 -75.391531 -161.274084 5.685495 -4.494010 -5.399649 1.288806 -5.061924 -3.027457 -2.441583 -5.358431 4.390191 4.239520 -22.204610 -11.367327 -0.149115 0.057459 -0.913233 0.000000 0.000000 0.000000 25.527632 18.785882 -1.108908 11.003276 -5.457841 -60.093847 177.298133 -70.402022 179.689955 23.230798 -6.153992 -1.473904 -0.373352 0.879777 -0.000000 0.000000 0.000000 0.000000 0.000000 0.000000 0.000000 2.511449 -21.938292 1.117369 59.785927 -32.663605 -36.728081 2.648466 33.351744 -0.040328 -15.291885 0.124684 -0.038303 0.302814 -0.158420 -0.000000 0.000000 0.000000 0.000000 0.000000 0.000000 0.000000 
6.232293 17.474024 1.098169 172.281736 -75.180219 -160.678473 5.666638 -4.519905 -5.404347 1.258618 -5.091621 -3.005793 -2.584962 -5.386113 4.442285 4.260987 -22.158351 -11.562617 -0.197399 0.057165 -0.966696 0.000000 0.000000 0.000000 24.878311 18.874072 -0.887868 11.414088 -4.912101 -58.894576 177.297209 -69.254596 179.703801 22.111586 -6.050778 -1.380817 -0.360229 0.879335 -0.000000 0.000000 0.000000 0.000000 0.000000 0.000000 0.000000 2.721647 -21.866372 1.096821 60.451426 -31.757658 -37.211406 2.635528 33.120414 -0.039556 -15.523732 0.475607 -0.087892 0.299843 -0.160155 -0.000000 0.000000 0.000000 0.000000 0.000000 0.000000 0.000000 
6.010705 17.299753 1.039253 171.590952 -75.017548 -160.021403 5.621086 -4.530026 -5.470115 1.215311 -5.108587 -2.999911 -2.763146 -5.398162 4.472021 4.347718 -22.085251 -11.754716 -0.268582 0.054676 -1.018195 0.000000 0.000000 0.000000 24.192341 18.921382 -0.703966 11.835494 -4.592521 -57.598730 177.304329 -68.241352 179.716755 21.063093 -6.009829 -1.306630 -0.346921 0.880190 -0.000000 0.000000 0.000000 0.000000 0.000000 0.000000 0.000000 3.058020 -21.739817 1.087141 61.147446 -30.790769 -37.632028 2.636279 32.789953 -0.038347 -15.713245 0.841951 -0.140479 0.296011 -0.160777 -0.000000 0.000000 0.000000 0.000000 0.000000 0.000000 0.000000 
5.791621 17.117819 0.979189 170.940301 -74.886011 -159.318609 5.554220 -4.511898 -5.601377 1.157406 -5.101149 -3.010337 -2.983449 -5.382366 4.480744 4.511181 -21.980563 -11.946631 -0.370791 0.049269 -1.068654 0.000000 0.000000 0.000000 23.497149 18.978333 -0.574402 12.207026 -4.609678 -56.203628 177.315226 -67.356376 179.728715 20.086260 -6.044834 -1.251841 -0.333172 0.882736 -0.000000 0.000000 0.000000 0.000000 0.000000 0.000000 0.000000 3.563876 -21.552533 1.088315 61.850728 -29.763863 -38.024749 2.650350 32.332995 -0.036794 -15.882973 1.215571 -0.194967 0.291374 -0.160223 -0.000000 0.000000 0.000000 0.000000 0.000000 0.000000 0.000000 
5.575632 16.930593 0.918345 170.386185 -74.767363 -158.610518 5.482163 -4.455807 -5.800265 1.086136 -5.060895 -3.037949 -3.252309 -5.329692 4.467147 4.752399 -21.829136 -12.138261 -0.510704 0.040272 -1.118272 0.000000 0.000000 0.000000 22.795536 19.039948 -0.500528 12.494284 -4.950420 -54.704743 177.328200 -66.574250 179.739539 19.197238 -6.135066 -1.211744 -0.319802 0.886578 -0.000000 0.000000 0.000000 0.000000 0.000000 0.000000 0.000000 4.259747 -21.286118 1.102057 62.549757 -28.672411 -38.439575 2.676340 31.714987 -0.035013 -16.057568 1.586702 -0.249957 0.285885 -0.158449 -0.000000 0.000000 0.000000 0.000000 0.000000 0.000000 0.000000 
5.363192 16.740910 0.857362 169.995228 -74.644259 -157.950258 5.426692 -4.354201 -6.067131 1.005007 -4.981692 -3.083546 -3.572369 -5.233463 4.430206 5.063409 -21.613895 -12.328060 -0.691956 0.027241 -1.167029 0.000000 0.000000 0.000000 22.094816 19.086570 -0.478920 12.634652 -5.564906 -53.084524 177.342411 -65.852236 179.749233 18.399566 -6.253699 -1.181136 -0.307553 0.891215 -0.000000 0.000000 0.000000 0.000000 0.000000 0.000000 0.000000 5.142519 -20.920986 1.131269 63.240524 -27.499895 -38.921546 2.711481 30.896064 -0.033137 -16.261111 1.939500 -0.303851 0.279368 -0.155384 -0.000000 0.000000 0.000000 0.000000 0.000000 0.000000 0.000000 
5.154638 16.551965 0.797096 169.828353 -74.504354 -157.390367 5.411668 -4.203836 -6.397307 0.919299 -4.861480 -3.147071 -3.941850 -5.091251 4.369460 5.426229 -21.318800 -12.512532 -0.914138 0.010072 -1.214530 0.000000 0.000000 0.000000 21.386542 19.095555 -0.501387 12.570907 -6.383648 -51.321466 177.359347 -65.151436 179.757942 17.689725 -6.371520 -1.154407 -0.297123 0.896034 -0.000000 0.000000 0.000000 0.000000 0.000000 0.000000 0.000000 6.182425 -20.440043 1.179530 63.925292 -26.218224 -39.504076 2.751336 29.835775 -0.031310 -16.511421 2.254592 -0.354251 0.271504 -0.150992 -0.000000 0.000000 0.000000 0.000000 0.000000 0.000000 0.000000 
